<?xml version="1.0" encoding="UTF-8" standalone="no"?>
<svg width="128" height="128" viewBox="0 0 128 128" xmlns="http://www.w3.org/2000/svg">
    <rect width="128" height="128" fill="#875A7B"/>
    <g transform="translate(24,24)" fill="#FFFFFF">
        <path d="M40,0 C62,0 80,18 80,40 C80,62 62,80 40,80 C18,80 0,62 0,40 C0,18 18,0 40,0 Z M40,10 C23.4,10 10,23.4 10,40 C10,56.6 23.4,70 40,70 C56.6,70 70,56.6 70,40 C70,23.4 56.6,10 40,10 Z M35,20 L45,20 L45,45 L60,45 L60,55 L35,55 L35,20 Z"/>
    </g>
</svg>
